<?xml version="1.0" encoding="UTF-8" standalone="no"?>
<!DOCTYPE svg PUBLIC "-//W3C//DTD SVG 1.1//EN"
 "http://www.w3.org/Graphics/SVG/1.1/DTD/svg11.dtd">
<!-- Generated by graphviz version 14.0.0 (20250921.2048)
 -->
<!-- Title: MindMap_XR Pages: 1 -->
<svg width="1183pt" height="1087pt"
 viewBox="0.00 0.00 1183.00 1087.00" xmlns="http://www.w3.org/2000/svg" xmlns:xlink="http://www.w3.org/1999/xlink">
<g id="graph0" class="graph" transform="scale(1 1) rotate(0) translate(4 1083.16)">
<title>MindMap_XR</title>
<polygon fill="white" stroke="none" points="-4,4 -4,-1083.16 1179.12,-1083.16 1179.12,4 -4,4"/>
<!-- XR -->
<g id="node1" class="node">
<title>XR</title>
<ellipse fill="#f0f8ff" stroke="black" cx="584.13" cy="-541.15" rx="83.97" ry="28.99"/>
<text xml:space="preserve" text-anchor="middle" x="584.13" y="-544.35" font-family="Times New Roman,serif" font-size="14.00">XR</text>
<text xml:space="preserve" text-anchor="middle" x="584.13" y="-527.85" font-family="Times New Roman,serif" font-size="14.00">(Extended Reality)</text>
</g>
<!-- AR -->
<g id="node2" class="node">
<title>AR</title>
<ellipse fill="#e8f7ff" stroke="black" cx="833.78" cy="-923.57" rx="82.38" ry="24.75"/>
<text xml:space="preserve" text-anchor="middle" x="833.78" y="-926.62" font-family="Times New Roman,serif" font-size="11.00">AR</text>
<text xml:space="preserve" text-anchor="middle" x="833.78" y="-913.12" font-family="Times New Roman,serif" font-size="11.00">(Realidad Aumentada)</text>
</g>
<!-- XR&#45;&#45;AR -->
<g id="edge1" class="edge">
<title>XR&#45;&#45;AR</title>
<path fill="none" stroke="black" d="M602.9,-569.89C650.18,-642.33 773.59,-831.38 817.76,-899.04"/>
</g>
<!-- VR -->
<g id="node3" class="node">
<title>VR</title>
<ellipse fill="#e8f7ff" stroke="black" cx="913.7" cy="-123.85" rx="68.06" ry="24.75"/>
<text xml:space="preserve" text-anchor="middle" x="913.7" y="-126.9" font-family="Times New Roman,serif" font-size="11.00">VR</text>
<text xml:space="preserve" text-anchor="middle" x="913.7" y="-113.4" font-family="Times New Roman,serif" font-size="11.00">(Realidad Virtual)</text>
</g>
<!-- XR&#45;&#45;VR -->
<g id="edge2" class="edge">
<title>XR&#45;&#45;VR</title>
<path fill="none" stroke="black" d="M606.53,-512.79C667.81,-435.2 837.49,-220.34 894.64,-147.99"/>
</g>
<!-- MR -->
<g id="node4" class="node">
<title>MR</title>
<ellipse fill="#e8f7ff" stroke="black" cx="430.02" cy="-1054.41" rx="65.41" ry="24.75"/>
<text xml:space="preserve" text-anchor="middle" x="430.02" y="-1057.46" font-family="Times New Roman,serif" font-size="11.00">MR</text>
<text xml:space="preserve" text-anchor="middle" x="430.02" y="-1043.96" font-family="Times New Roman,serif" font-size="11.00">(Realidad Mixta)</text>
</g>
<!-- XR&#45;&#45;MR -->
<g id="edge3" class="edge">
<title>XR&#45;&#45;MR</title>
<path fill="none" stroke="black" d="M575.41,-570.22C547.9,-661.83 463.31,-943.55 437.55,-1029.35"/>
</g>
<!-- AV -->
<g id="node5" class="node">
<title>AV</title>
<ellipse fill="#e8f7ff" stroke="black" cx="1085.84" cy="-810.8" rx="89.27" ry="24.75"/>
<text xml:space="preserve" text-anchor="middle" x="1085.84" y="-813.85" font-family="Times New Roman,serif" font-size="11.00">AV</text>
<text xml:space="preserve" text-anchor="middle" x="1085.84" y="-800.35" font-family="Times New Roman,serif" font-size="11.00">(Virtualidad Aumentada)</text>
</g>
<!-- XR&#45;&#45;AV -->
<g id="edge4" class="edge">
<title>XR&#45;&#45;AV</title>
<path fill="none" stroke="black" d="M629.99,-565.79C726.99,-617.93 951.67,-738.69 1044.53,-788.6"/>
</g>
<!-- Continuum -->
<g id="node6" class="node">
<title>Continuum</title>
<ellipse fill="#e8f7ff" stroke="black" cx="78.14" cy="-465.98" rx="78.14" ry="24.75"/>
<text xml:space="preserve" text-anchor="middle" x="78.14" y="-469.03" font-family="Times New Roman,serif" font-size="11.00">Continuo</text>
<text xml:space="preserve" text-anchor="middle" x="78.14" y="-455.53" font-family="Times New Roman,serif" font-size="11.00">Realidad–Virtualidad</text>
</g>
<!-- XR&#45;&#45;Continuum -->
<g id="edge5" class="edge">
<title>XR&#45;&#45;Continuum</title>
<path fill="none" stroke="black" d="M506.46,-529.61C409.08,-515.14 243.53,-490.55 149.31,-476.55"/>
</g>
<!-- Devices -->
<g id="node7" class="node">
<title>Devices</title>
<ellipse fill="#fff4e6" stroke="black" cx="1046.85" cy="-527.49" rx="110.49" ry="24.75"/>
<text xml:space="preserve" text-anchor="middle" x="1046.85" y="-530.54" font-family="Times New Roman,serif" font-size="11.00">Dispositivos</text>
<text xml:space="preserve" text-anchor="middle" x="1046.85" y="-517.04" font-family="Times New Roman,serif" font-size="11.00">(smartphone, HoloLens, Quest)</text>
</g>
<!-- XR&#45;&#45;Devices -->
<g id="edge6" class="edge">
<title>XR&#45;&#45;Devices</title>
<path fill="none" stroke="black" d="M668.2,-538.67C743.63,-536.44 854.82,-533.16 937.21,-530.73"/>
</g>
<!-- Apps -->
<g id="node8" class="node">
<title>Apps</title>
<ellipse fill="#fff4e6" stroke="black" cx="600.79" cy="-24.75" rx="138.59" ry="24.75"/>
<text xml:space="preserve" text-anchor="middle" x="600.79" y="-27.8" font-family="Times New Roman,serif" font-size="11.00">Apps</text>
<text xml:space="preserve" text-anchor="middle" x="600.79" y="-14.3" font-family="Times New Roman,serif" font-size="11.00">(IKEA Place, Pokemon Go, Beat Saber)</text>
</g>
<!-- XR&#45;&#45;Apps -->
<g id="edge7" class="edge">
<title>XR&#45;&#45;Apps</title>
<path fill="none" stroke="black" d="M585.08,-511.91C588.05,-419.73 597.19,-136.29 599.97,-49.96"/>
</g>
<!-- Tools -->
<g id="node9" class="node">
<title>Tools</title>
<ellipse fill="#fff4e6" stroke="black" cx="172.81" cy="-851.56" rx="88.74" ry="24.75"/>
<text xml:space="preserve" text-anchor="middle" x="172.81" y="-854.61" font-family="Times New Roman,serif" font-size="11.00">Herramientas</text>
<text xml:space="preserve" text-anchor="middle" x="172.81" y="-841.11" font-family="Times New Roman,serif" font-size="11.00">(Unity, Unreal, WebXR)</text>
</g>
<!-- XR&#45;&#45;Tools -->
<g id="edge8" class="edge">
<title>XR&#45;&#45;Tools</title>
<path fill="none" stroke="black" d="M548.71,-567.88C469.49,-627.66 279.12,-771.34 204.03,-828.01"/>
</g>
<!-- Edu -->
<g id="node10" class="node">
<title>Edu</title>
<ellipse fill="#fff4e6" stroke="black" cx="227.46" cy="-175.07" rx="99.35" ry="24.75"/>
<text xml:space="preserve" text-anchor="middle" x="227.46" y="-178.12" font-family="Times New Roman,serif" font-size="11.00">Educación</text>
<text xml:space="preserve" text-anchor="middle" x="227.46" y="-164.62" font-family="Times New Roman,serif" font-size="11.00">(lab VR, historia inmersiva)</text>
</g>
<!-- XR&#45;&#45;Edu -->
<g id="edge9" class="edge">
<title>XR&#45;&#45;Edu</title>
<path fill="none" stroke="black" d="M557.03,-513.33C489.56,-444.09 314.94,-264.86 251.2,-199.44"/>
</g>
<!-- AR&#45;&#45;Devices -->
<g id="edge10" class="edge">
<title>AR&#45;&#45;Devices</title>
<path fill="none" stroke="black" d="M847.1,-898.79C885.32,-827.74 995.01,-623.86 1033.39,-552.51"/>
</g>
<!-- VR&#45;&#45;Apps -->
<g id="edge11" class="edge">
<title>VR&#45;&#45;Apps</title>
<path fill="none" stroke="black" d="M862.03,-107.49C809.52,-90.86 727.86,-65 669.83,-46.62"/>
</g>
<!-- MR&#45;&#45;Tools -->
<g id="edge12" class="edge">
<title>MR&#45;&#45;Tools</title>
<path fill="none" stroke="black" d="M401.51,-1031.92C352.47,-993.24 252.58,-914.47 202.64,-875.09"/>
</g>
<!-- Continuum&#45;&#45;Edu -->
<g id="edge13" class="edge">
<title>Continuum&#45;&#45;Edu</title>
<path fill="none" stroke="black" d="M90.87,-441.17C119.08,-386.21 186.58,-254.71 214.76,-199.81"/>
</g>
</g>
</svg>
