<?xml version="1.0" encoding="UTF-8" standalone="no"?>
<!DOCTYPE svg PUBLIC "-//W3C//DTD SVG 1.1//EN"
 "http://www.w3.org/Graphics/SVG/1.1/DTD/svg11.dtd">
<!-- Generated by graphviz version 14.0.0 (20250921.2048)
 -->
<!-- Title: UseCases_XR_Education Pages: 1 -->
<svg width="314pt" height="206pt"
 viewBox="0.00 0.00 314.00 206.00" xmlns="http://www.w3.org/2000/svg" xmlns:xlink="http://www.w3.org/1999/xlink">
<g id="graph0" class="graph" transform="scale(1 1) rotate(0) translate(4 202)">
<title>UseCases_XR_Education</title>
<polygon fill="white" stroke="none" points="-4,4 -4,-202 310.4,-202 310.4,4 -4,4"/>
<!-- Student -->
<g id="node1" class="node">
<title>Student</title>
<polygon fill="#e8f6ff" stroke="black" points="62.5,-144 0,-144 0,-108 62.5,-108 62.5,-144"/>
<text xml:space="preserve" text-anchor="middle" x="31.25" y="-122.3" font-family="Times New Roman,serif" font-size="11.00">Estudiante</text>
</g>
<!-- Lab -->
<g id="node3" class="node">
<title>Lab</title>
<ellipse fill="#e2f7e1" stroke="black" cx="202.45" cy="-180" rx="70.75" ry="18"/>
<text xml:space="preserve" text-anchor="middle" x="202.45" y="-176.3" font-family="Times New Roman,serif" font-size="11.00">Laboratorios virtuales</text>
</g>
<!-- Student&#45;&gt;Lab -->
<g id="edge1" class="edge">
<title>Student&#45;&gt;Lab</title>
<path fill="none" stroke="black" d="M62.94,-139.48C74.03,-144.09 86.72,-149.07 98.5,-153 111.24,-157.25 125.04,-161.26 138.27,-164.82"/>
<polygon fill="black" stroke="black" points="137.19,-168.16 147.75,-167.32 138.98,-161.39 137.19,-168.16"/>
</g>
<!-- History -->
<g id="node4" class="node">
<title>History</title>
<ellipse fill="#e2f7e1" stroke="black" cx="202.45" cy="-126" rx="103.95" ry="18"/>
<text xml:space="preserve" text-anchor="middle" x="202.45" y="-122.3" font-family="Times New Roman,serif" font-size="11.00">Aprendizaje inmersivo de historia</text>
</g>
<!-- Student&#45;&gt;History -->
<g id="edge2" class="edge">
<title>Student&#45;&gt;History</title>
<path fill="none" stroke="black" d="M62.89,-126C70.19,-126 78.41,-126 87.11,-126"/>
<polygon fill="black" stroke="black" points="86.84,-129.5 96.84,-126 86.84,-122.5 86.84,-129.5"/>
</g>
<!-- Science -->
<g id="node5" class="node">
<title>Science</title>
<ellipse fill="#e2f7e1" stroke="black" cx="202.45" cy="-72" rx="80.1" ry="18"/>
<text xml:space="preserve" text-anchor="middle" x="202.45" y="-68.3" font-family="Times New Roman,serif" font-size="11.00">Simulaciones de ciencias</text>
</g>
<!-- Student&#45;&gt;Science -->
<g id="edge3" class="edge">
<title>Student&#45;&gt;Science</title>
<path fill="none" stroke="black" d="M62.94,-112.52C74.03,-107.91 86.72,-102.93 98.5,-99 110.18,-95.11 122.75,-91.41 134.95,-88.08"/>
<polygon fill="black" stroke="black" points="135.81,-91.47 144.57,-85.51 134,-84.71 135.81,-91.47"/>
</g>
<!-- Teacher -->
<g id="node2" class="node">
<title>Teacher</title>
<polygon fill="#fff3e0" stroke="black" points="58.25,-90 4.25,-90 4.25,-54 58.25,-54 58.25,-90"/>
<text xml:space="preserve" text-anchor="middle" x="31.25" y="-68.3" font-family="Times New Roman,serif" font-size="11.00">Profesor</text>
</g>
<!-- Teacher&#45;&gt;Lab -->
<g id="edge5" class="edge">
<title>Teacher&#45;&gt;Lab</title>
<path fill="none" stroke="black" d="M54.06,-90.24C57.01,-93.06 59.92,-96.02 62.5,-99 81.41,-120.78 75.02,-136.25 98.5,-153 107.53,-159.44 117.98,-164.34 128.69,-168.08"/>
<polygon fill="black" stroke="black" points="127.41,-171.34 138,-170.98 129.49,-164.66 127.41,-171.34"/>
</g>
<!-- Teacher&#45;&gt;History -->
<g id="edge6" class="edge">
<title>Teacher&#45;&gt;History</title>
<path fill="none" stroke="black" d="M58.71,-83.71C70.72,-88.78 85.19,-94.56 98.5,-99 108.22,-102.24 118.56,-105.34 128.79,-108.22"/>
<polygon fill="black" stroke="black" points="127.79,-111.57 138.36,-110.84 129.64,-104.82 127.79,-111.57"/>
</g>
<!-- Teacher&#45;&gt;Science -->
<g id="edge7" class="edge">
<title>Teacher&#45;&gt;Science</title>
<path fill="none" stroke="black" d="M58.69,-72C73.06,-72 91.78,-72 110.9,-72"/>
<polygon fill="black" stroke="black" points="110.66,-75.5 120.66,-72 110.66,-68.5 110.66,-75.5"/>
</g>
<!-- Manage -->
<g id="node6" class="node">
<title>Manage</title>
<ellipse fill="#fff6e6" stroke="black" cx="202.45" cy="-18" rx="88.52" ry="18"/>
<text xml:space="preserve" text-anchor="middle" x="202.45" y="-14.3" font-family="Times New Roman,serif" font-size="11.00">Configurar experiencias XR</text>
</g>
<!-- Teacher&#45;&gt;Manage -->
<g id="edge4" class="edge">
<title>Teacher&#45;&gt;Manage</title>
<path fill="none" stroke="black" d="M58.71,-60.29C70.72,-55.22 85.19,-49.44 98.5,-45 109.39,-41.37 121.06,-37.91 132.49,-34.75"/>
<polygon fill="black" stroke="black" points="133.14,-38.2 141.88,-32.22 131.31,-31.45 133.14,-38.2"/>
</g>
</g>
</svg>
